<mxfile host="app.diagrams.net" modified="2023-10-21T12:12:00.937Z" agent="Mozilla/5.0 (Macintosh; Intel Mac OS X 10_15_7) AppleWebKit/537.36 (KHTML, like Gecko) Chrome/118.0.0.0 Safari/537.36" etag="5J2b1H1F8erQKFOxzZ-A" version="22.0.6" type="github">
  <diagram name="Page-1" id="_Vgb9JAo8r92jsutBCuS">
    <mxGraphModel dx="954" dy="547" grid="1" gridSize="10" guides="1" tooltips="1" connect="1" arrows="1" fold="1" page="1" pageScale="1" pageWidth="850" pageHeight="1100" math="0" shadow="0">
      <root>
        <mxCell id="0" />
        <mxCell id="1" parent="0" />
        <mxCell id="adP3Fn6gAqeoGZsMluHC-1" value="" style="verticalLabelPosition=bottom;shadow=0;dashed=0;align=center;fillColor=strokeColor;html=1;verticalAlign=top;strokeWidth=1;shape=mxgraph.electrical.miscellaneous.monocell_battery;" parent="1" vertex="1">
          <mxGeometry x="333.5" y="300" width="100" height="60" as="geometry" />
        </mxCell>
        <mxCell id="adP3Fn6gAqeoGZsMluHC-3" value="" style="ellipse;whiteSpace=wrap;html=1;aspect=fixed;fillColor=#FFB570;strokeColor=#d79b00;" parent="1" vertex="1">
          <mxGeometry x="242" y="110" width="80" height="80" as="geometry" />
        </mxCell>
        <mxCell id="adP3Fn6gAqeoGZsMluHC-4" value="" style="shape=or;whiteSpace=wrap;html=1;fillColor=#FFB570;strokeColor=#d79b00;" parent="1" vertex="1">
          <mxGeometry x="80" y="110" width="140" height="80" as="geometry" />
        </mxCell>
        <mxCell id="adP3Fn6gAqeoGZsMluHC-5" value="" style="shape=or;whiteSpace=wrap;html=1;direction=west;fillColor=#FFB570;strokeColor=#d79b00;" parent="1" vertex="1">
          <mxGeometry x="340" y="110" width="140" height="80" as="geometry" />
        </mxCell>
        <mxCell id="adP3Fn6gAqeoGZsMluHC-8" style="edgeStyle=orthogonalEdgeStyle;rounded=0;orthogonalLoop=1;jettySize=auto;html=1;exitX=0;exitY=0.5;exitDx=0;exitDy=0;exitPerimeter=0;entryX=0;entryY=0.5;entryDx=0;entryDy=0;entryPerimeter=0;endArrow=none;endFill=0;" parent="1" source="adP3Fn6gAqeoGZsMluHC-1" target="adP3Fn6gAqeoGZsMluHC-4" edge="1">
          <mxGeometry relative="1" as="geometry">
            <Array as="points">
              <mxPoint x="328" y="330" />
              <mxPoint x="40" y="330" />
              <mxPoint x="40" y="150" />
            </Array>
          </mxGeometry>
        </mxCell>
        <mxCell id="adP3Fn6gAqeoGZsMluHC-9" style="edgeStyle=orthogonalEdgeStyle;rounded=0;orthogonalLoop=1;jettySize=auto;html=1;exitX=1;exitY=0.5;exitDx=0;exitDy=0;exitPerimeter=0;entryX=0;entryY=0.5;entryDx=0;entryDy=0;entryPerimeter=0;endArrow=none;endFill=0;" parent="1" source="adP3Fn6gAqeoGZsMluHC-1" target="adP3Fn6gAqeoGZsMluHC-5" edge="1">
          <mxGeometry relative="1" as="geometry">
            <Array as="points">
              <mxPoint x="520" y="330" />
              <mxPoint x="520" y="150" />
            </Array>
          </mxGeometry>
        </mxCell>
        <mxCell id="adP3Fn6gAqeoGZsMluHC-14" value="e" style="text;html=1;strokeColor=none;fillColor=none;align=center;verticalAlign=middle;whiteSpace=wrap;rounded=0;" parent="1" vertex="1">
          <mxGeometry x="150" y="135" width="60" height="30" as="geometry" />
        </mxCell>
        <mxCell id="adP3Fn6gAqeoGZsMluHC-15" value="e" style="text;html=1;strokeColor=none;fillColor=none;align=center;verticalAlign=middle;whiteSpace=wrap;rounded=0;" parent="1" vertex="1">
          <mxGeometry x="252" y="138" width="60" height="30" as="geometry" />
        </mxCell>
        <mxCell id="adP3Fn6gAqeoGZsMluHC-16" value="e" style="text;html=1;strokeColor=none;fillColor=none;align=center;verticalAlign=middle;whiteSpace=wrap;rounded=0;" parent="1" vertex="1">
          <mxGeometry x="340" y="138" width="60" height="30" as="geometry" />
        </mxCell>
        <mxCell id="adP3Fn6gAqeoGZsMluHC-17" value="" style="ellipse;whiteSpace=wrap;html=1;aspect=fixed;" parent="1" vertex="1">
          <mxGeometry x="190" y="140" width="5" height="5" as="geometry" />
        </mxCell>
        <mxCell id="adP3Fn6gAqeoGZsMluHC-18" value="" style="ellipse;whiteSpace=wrap;html=1;aspect=fixed;" parent="1" vertex="1">
          <mxGeometry x="283.5" y="143" width="5" height="5" as="geometry" />
        </mxCell>
        <mxCell id="adP3Fn6gAqeoGZsMluHC-21" value="" style="ellipse;whiteSpace=wrap;html=1;aspect=fixed;" parent="1" vertex="1">
          <mxGeometry x="375" y="143" width="5" height="5" as="geometry" />
        </mxCell>
        <mxCell id="adP3Fn6gAqeoGZsMluHC-22" value="tunneling barriers" style="text;html=1;strokeColor=none;fillColor=none;align=center;verticalAlign=middle;whiteSpace=wrap;rounded=0;" parent="1" vertex="1">
          <mxGeometry x="252" y="70" width="60" height="30" as="geometry" />
        </mxCell>
        <mxCell id="adP3Fn6gAqeoGZsMluHC-26" value="V&lt;sub style=&quot;font-size: 13px;&quot;&gt;ds&lt;/sub&gt;" style="text;html=1;strokeColor=none;fillColor=none;align=center;verticalAlign=middle;whiteSpace=wrap;rounded=0;fontSize=13;" parent="1" vertex="1">
          <mxGeometry x="383.5" y="300" width="60" height="30" as="geometry" />
        </mxCell>
        <mxCell id="acYc27RFogphZZk253pl-13" value="source&lt;br&gt;electrode" style="text;html=1;strokeColor=none;fillColor=none;align=center;verticalAlign=middle;whiteSpace=wrap;rounded=0;" parent="1" vertex="1">
          <mxGeometry x="100" y="70" width="60" height="30" as="geometry" />
        </mxCell>
        <mxCell id="acYc27RFogphZZk253pl-15" value="drain&lt;br&gt;electrode" style="text;html=1;strokeColor=none;fillColor=none;align=center;verticalAlign=middle;whiteSpace=wrap;rounded=0;" parent="1" vertex="1">
          <mxGeometry x="410" y="70" width="60" height="30" as="geometry" />
        </mxCell>
        <mxCell id="h9TD5exB-fgF-aXlMLzN-2" value="" style="endArrow=none;html=1;rounded=0;" edge="1" parent="1" source="h9TD5exB-fgF-aXlMLzN-3">
          <mxGeometry width="50" height="50" relative="1" as="geometry">
            <mxPoint x="284" y="280" as="sourcePoint" />
            <mxPoint x="283.5" y="190" as="targetPoint" />
          </mxGeometry>
        </mxCell>
        <mxCell id="h9TD5exB-fgF-aXlMLzN-5" value="V&lt;sub&gt;g&lt;/sub&gt;" style="text;html=1;strokeColor=none;fillColor=none;align=center;verticalAlign=middle;whiteSpace=wrap;rounded=0;fontSize=13;" vertex="1" parent="1">
          <mxGeometry x="223.5" y="260" width="60" height="30" as="geometry" />
        </mxCell>
        <mxCell id="h9TD5exB-fgF-aXlMLzN-8" value="" style="endArrow=classic;html=1;rounded=0;exitX=0;exitY=0.75;exitDx=0;exitDy=0;" edge="1" parent="1" source="adP3Fn6gAqeoGZsMluHC-22">
          <mxGeometry width="50" height="50" relative="1" as="geometry">
            <mxPoint x="283.5" y="80" as="sourcePoint" />
            <mxPoint x="230" y="130" as="targetPoint" />
          </mxGeometry>
        </mxCell>
        <mxCell id="h9TD5exB-fgF-aXlMLzN-9" value="" style="endArrow=classic;html=1;rounded=0;exitX=1;exitY=0.5;exitDx=0;exitDy=0;" edge="1" parent="1" source="adP3Fn6gAqeoGZsMluHC-22">
          <mxGeometry width="50" height="50" relative="1" as="geometry">
            <mxPoint x="316.5" y="80" as="sourcePoint" />
            <mxPoint x="330" y="130" as="targetPoint" />
          </mxGeometry>
        </mxCell>
        <mxCell id="h9TD5exB-fgF-aXlMLzN-35" value="" style="rounded=0;whiteSpace=wrap;html=1;direction=south;" vertex="1" parent="1">
          <mxGeometry x="163.5" y="493" width="30" height="80" as="geometry" />
        </mxCell>
        <mxCell id="h9TD5exB-fgF-aXlMLzN-36" style="edgeStyle=orthogonalEdgeStyle;rounded=0;orthogonalLoop=1;jettySize=auto;html=1;exitX=0.5;exitY=0;exitDx=0;exitDy=0;entryX=0;entryY=0.5;entryDx=0;entryDy=0;endArrow=none;endFill=0;" edge="1" parent="1" source="h9TD5exB-fgF-aXlMLzN-37" target="h9TD5exB-fgF-aXlMLzN-42">
          <mxGeometry relative="1" as="geometry" />
        </mxCell>
        <mxCell id="h9TD5exB-fgF-aXlMLzN-37" value="" style="rounded=0;whiteSpace=wrap;html=1;direction=south;" vertex="1" parent="1">
          <mxGeometry x="193.5" y="493" width="30" height="80" as="geometry" />
        </mxCell>
        <mxCell id="h9TD5exB-fgF-aXlMLzN-38" value="" style="rounded=0;whiteSpace=wrap;html=1;direction=south;" vertex="1" parent="1">
          <mxGeometry x="383.5" y="493" width="30" height="80" as="geometry" />
        </mxCell>
        <mxCell id="h9TD5exB-fgF-aXlMLzN-65" style="edgeStyle=orthogonalEdgeStyle;rounded=0;orthogonalLoop=1;jettySize=auto;html=1;exitX=0.5;exitY=0;exitDx=0;exitDy=0;entryX=1;entryY=0.5;entryDx=0;entryDy=0;endArrow=none;endFill=0;" edge="1" parent="1" source="h9TD5exB-fgF-aXlMLzN-40" target="h9TD5exB-fgF-aXlMLzN-63">
          <mxGeometry relative="1" as="geometry">
            <Array as="points">
              <mxPoint x="500" y="533" />
              <mxPoint x="500" y="695" />
            </Array>
          </mxGeometry>
        </mxCell>
        <mxCell id="h9TD5exB-fgF-aXlMLzN-40" value="" style="rounded=0;whiteSpace=wrap;html=1;direction=south;" vertex="1" parent="1">
          <mxGeometry x="413.5" y="493" width="30" height="80" as="geometry" />
        </mxCell>
        <mxCell id="h9TD5exB-fgF-aXlMLzN-41" style="edgeStyle=orthogonalEdgeStyle;rounded=0;orthogonalLoop=1;jettySize=auto;html=1;entryX=0.5;entryY=1;entryDx=0;entryDy=0;endArrow=none;endFill=0;" edge="1" parent="1" source="h9TD5exB-fgF-aXlMLzN-42" target="h9TD5exB-fgF-aXlMLzN-38">
          <mxGeometry relative="1" as="geometry" />
        </mxCell>
        <mxCell id="h9TD5exB-fgF-aXlMLzN-42" value="" style="ellipse;whiteSpace=wrap;html=1;aspect=fixed;fillColor=#121212;" vertex="1" parent="1">
          <mxGeometry x="289.5" y="518" width="30" height="30" as="geometry" />
        </mxCell>
        <mxCell id="h9TD5exB-fgF-aXlMLzN-43" style="edgeStyle=orthogonalEdgeStyle;rounded=0;orthogonalLoop=1;jettySize=auto;html=1;exitX=0.75;exitY=0;exitDx=0;exitDy=0;entryX=0.5;entryY=1;entryDx=0;entryDy=0;endArrow=none;endFill=0;" edge="1" parent="1" source="h9TD5exB-fgF-aXlMLzN-47" target="h9TD5exB-fgF-aXlMLzN-35">
          <mxGeometry relative="1" as="geometry">
            <mxPoint x="108.5" y="593" as="sourcePoint" />
            <Array as="points">
              <mxPoint x="109" y="700" />
              <mxPoint x="109" y="533" />
            </Array>
          </mxGeometry>
        </mxCell>
        <mxCell id="h9TD5exB-fgF-aXlMLzN-45" value="&lt;font style=&quot;font-size: 14px;&quot; face=&quot;Times New Roman&quot;&gt;R&lt;sub style=&quot;font-size: 14px;&quot;&gt;1&lt;/sub&gt;,C&lt;sub style=&quot;font-size: 14px;&quot;&gt;1&lt;/sub&gt;&lt;/font&gt;" style="text;html=1;strokeColor=none;fillColor=none;align=center;verticalAlign=middle;whiteSpace=wrap;rounded=0;fontSize=14;" vertex="1" parent="1">
          <mxGeometry x="163.5" y="573" width="60" height="30" as="geometry" />
        </mxCell>
        <mxCell id="h9TD5exB-fgF-aXlMLzN-46" value="&lt;font style=&quot;font-size: 14px;&quot; face=&quot;Times New Roman&quot;&gt;R&lt;sub&gt;2&lt;/sub&gt;,C&lt;sub&gt;2&lt;/sub&gt;&lt;/font&gt;" style="text;html=1;strokeColor=none;fillColor=none;align=center;verticalAlign=middle;whiteSpace=wrap;rounded=0;fontSize=14;" vertex="1" parent="1">
          <mxGeometry x="383.5" y="573" width="60" height="30" as="geometry" />
        </mxCell>
        <mxCell id="h9TD5exB-fgF-aXlMLzN-47" value="-" style="text;html=1;strokeColor=none;fillColor=none;align=center;verticalAlign=middle;whiteSpace=wrap;rounded=0;fontSize=29;fontFamily=Times New Roman;" vertex="1" parent="1">
          <mxGeometry x="353.5" y="700" width="60" height="30" as="geometry" />
        </mxCell>
        <mxCell id="h9TD5exB-fgF-aXlMLzN-48" value="+" style="text;html=1;strokeColor=none;fillColor=none;align=center;verticalAlign=middle;whiteSpace=wrap;rounded=0;fontSize=29;fontFamily=Times New Roman;" vertex="1" parent="1">
          <mxGeometry x="433.5" y="700" width="60" height="30" as="geometry" />
        </mxCell>
        <mxCell id="h9TD5exB-fgF-aXlMLzN-49" value="+" style="text;html=1;strokeColor=none;fillColor=none;align=center;verticalAlign=middle;whiteSpace=wrap;rounded=0;fontSize=29;fontFamily=Times New Roman;" vertex="1" parent="1">
          <mxGeometry x="203.5" y="473" width="60" height="30" as="geometry" />
        </mxCell>
        <mxCell id="h9TD5exB-fgF-aXlMLzN-50" value="+" style="text;html=1;strokeColor=none;fillColor=none;align=center;verticalAlign=middle;whiteSpace=wrap;rounded=0;fontSize=29;fontFamily=Times New Roman;" vertex="1" parent="1">
          <mxGeometry x="418.5" y="473" width="60" height="30" as="geometry" />
        </mxCell>
        <mxCell id="h9TD5exB-fgF-aXlMLzN-51" value="-" style="text;html=1;strokeColor=none;fillColor=none;align=center;verticalAlign=middle;whiteSpace=wrap;rounded=0;fontSize=29;fontFamily=Times New Roman;" vertex="1" parent="1">
          <mxGeometry x="123.5" y="473" width="60" height="30" as="geometry" />
        </mxCell>
        <mxCell id="h9TD5exB-fgF-aXlMLzN-52" value="-" style="text;html=1;strokeColor=none;fillColor=none;align=center;verticalAlign=middle;whiteSpace=wrap;rounded=0;fontSize=29;fontFamily=Times New Roman;" vertex="1" parent="1">
          <mxGeometry x="341.5" y="473" width="60" height="30" as="geometry" />
        </mxCell>
        <mxCell id="h9TD5exB-fgF-aXlMLzN-53" value="island" style="text;html=1;strokeColor=none;fillColor=none;align=center;verticalAlign=middle;whiteSpace=wrap;rounded=0;fontFamily=Times New Roman;fontSize=17;" vertex="1" parent="1">
          <mxGeometry x="275.5" y="492" width="60" height="30" as="geometry" />
        </mxCell>
        <mxCell id="h9TD5exB-fgF-aXlMLzN-56" value="&lt;span style=&quot;caret-color: rgb(0, 0, 0); color: rgb(0, 0, 0); font-family: &amp;quot;Times New Roman&amp;quot;; font-size: 14px; font-style: normal; font-variant-caps: normal; font-weight: 400; letter-spacing: normal; text-align: center; text-indent: 0px; text-transform: none; word-spacing: 0px; -webkit-text-stroke-width: 0px; background-color: rgb(251, 251, 251); text-decoration: none; float: none; display: inline !important;&quot;&gt;V&lt;sub&gt;1&lt;/sub&gt;&lt;/span&gt;" style="text;whiteSpace=wrap;html=1;" vertex="1" parent="1">
          <mxGeometry x="182.5" y="465" width="60" height="40" as="geometry" />
        </mxCell>
        <mxCell id="h9TD5exB-fgF-aXlMLzN-57" value="&lt;span style=&quot;caret-color: rgb(0, 0, 0); color: rgb(0, 0, 0); font-family: &amp;quot;Times New Roman&amp;quot;; font-size: 14px; font-style: normal; font-variant-caps: normal; font-weight: 400; letter-spacing: normal; text-align: center; text-indent: 0px; text-transform: none; word-spacing: 0px; -webkit-text-stroke-width: 0px; background-color: rgb(251, 251, 251); text-decoration: none; float: none; display: inline !important;&quot;&gt;V&lt;/span&gt;&lt;span style=&quot;caret-color: rgb(0, 0, 0); color: rgb(0, 0, 0); font-family: &amp;quot;Times New Roman&amp;quot;; font-style: normal; font-variant-caps: normal; font-weight: 400; letter-spacing: normal; text-align: center; text-indent: 0px; text-transform: none; word-spacing: 0px; -webkit-text-stroke-width: 0px; background-color: rgb(251, 251, 251); text-decoration: none; float: none; display: inline !important; font-size: 11.666666px;&quot;&gt;&lt;sub&gt;2&lt;/sub&gt;&lt;/span&gt;" style="text;whiteSpace=wrap;html=1;" vertex="1" parent="1">
          <mxGeometry x="405.5" y="464" width="60" height="40" as="geometry" />
        </mxCell>
        <mxCell id="h9TD5exB-fgF-aXlMLzN-58" value="&lt;span style=&quot;caret-color: rgb(0, 0, 0); color: rgb(0, 0, 0); font-family: &amp;quot;Times New Roman&amp;quot;; font-size: 14px; font-style: normal; font-variant-caps: normal; font-weight: 400; letter-spacing: normal; text-align: center; text-indent: 0px; text-transform: none; word-spacing: 0px; -webkit-text-stroke-width: 0px; background-color: rgb(251, 251, 251); text-decoration: none; float: none; display: inline !important;&quot;&gt;I&lt;/span&gt;&lt;sub style=&quot;border-color: var(--border-color); caret-color: rgb(0, 0, 0); color: rgb(0, 0, 0); font-family: &amp;quot;Times New Roman&amp;quot;; font-style: normal; font-variant-caps: normal; font-weight: 400; letter-spacing: normal; text-align: center; text-indent: 0px; text-transform: none; word-spacing: 0px; -webkit-text-stroke-width: 0px; text-decoration: none; font-size: 14px;&quot;&gt;ds&lt;/sub&gt;" style="text;whiteSpace=wrap;html=1;" vertex="1" parent="1">
          <mxGeometry x="163.5" y="710" width="60" height="40" as="geometry" />
        </mxCell>
        <mxCell id="h9TD5exB-fgF-aXlMLzN-59" value="" style="endArrow=classic;html=1;rounded=0;strokeWidth=2;" edge="1" parent="1">
          <mxGeometry width="50" height="50" relative="1" as="geometry">
            <mxPoint x="160" y="710" as="sourcePoint" />
            <mxPoint x="200" y="710" as="targetPoint" />
          </mxGeometry>
        </mxCell>
        <mxCell id="h9TD5exB-fgF-aXlMLzN-60" value="" style="endArrow=none;html=1;rounded=0;" edge="1" parent="1" target="h9TD5exB-fgF-aXlMLzN-3">
          <mxGeometry width="50" height="50" relative="1" as="geometry">
            <mxPoint x="284" y="280" as="sourcePoint" />
            <mxPoint x="283.5" y="190" as="targetPoint" />
          </mxGeometry>
        </mxCell>
        <mxCell id="h9TD5exB-fgF-aXlMLzN-62" style="edgeStyle=orthogonalEdgeStyle;rounded=0;orthogonalLoop=1;jettySize=auto;html=1;exitX=0;exitY=0.5;exitDx=0;exitDy=0;exitPerimeter=0;endArrow=none;endFill=0;" edge="1" parent="1" source="h9TD5exB-fgF-aXlMLzN-3">
          <mxGeometry relative="1" as="geometry">
            <mxPoint x="284" y="330" as="targetPoint" />
          </mxGeometry>
        </mxCell>
        <mxCell id="h9TD5exB-fgF-aXlMLzN-3" value="" style="verticalLabelPosition=bottom;shadow=0;dashed=0;align=center;fillColor=strokeColor;html=1;verticalAlign=top;strokeWidth=1;shape=mxgraph.electrical.miscellaneous.monocell_battery;rotation=-90;" vertex="1" parent="1">
          <mxGeometry x="233.5" y="230" width="100" height="60" as="geometry" />
        </mxCell>
        <mxCell id="h9TD5exB-fgF-aXlMLzN-63" value="V&lt;sub style=&quot;border-color: var(--border-color); font-size: 14px;&quot;&gt;ds&lt;/sub&gt;" style="ellipse;whiteSpace=wrap;html=1;aspect=fixed;fontSize=14;fontFamily=Times New Roman;" vertex="1" parent="1">
          <mxGeometry x="400" y="670" width="50" height="50" as="geometry" />
        </mxCell>
        <mxCell id="h9TD5exB-fgF-aXlMLzN-70" style="edgeStyle=orthogonalEdgeStyle;rounded=0;orthogonalLoop=1;jettySize=auto;html=1;endArrow=none;endFill=0;" edge="1" parent="1" source="h9TD5exB-fgF-aXlMLzN-66">
          <mxGeometry relative="1" as="geometry">
            <mxPoint x="308.5" y="700" as="targetPoint" />
          </mxGeometry>
        </mxCell>
        <mxCell id="h9TD5exB-fgF-aXlMLzN-66" value="Vg" style="ellipse;whiteSpace=wrap;html=1;aspect=fixed;fontSize=14;fontFamily=Times New Roman;" vertex="1" parent="1">
          <mxGeometry x="288.5" y="620" width="40" height="40" as="geometry" />
        </mxCell>
        <mxCell id="h9TD5exB-fgF-aXlMLzN-67" value="+" style="text;html=1;strokeColor=none;fillColor=none;align=center;verticalAlign=middle;whiteSpace=wrap;rounded=0;fontSize=29;fontFamily=Times New Roman;" vertex="1" parent="1">
          <mxGeometry x="252" y="608" width="60" height="30" as="geometry" />
        </mxCell>
        <mxCell id="h9TD5exB-fgF-aXlMLzN-68" value="-" style="text;html=1;strokeColor=none;fillColor=none;align=center;verticalAlign=middle;whiteSpace=wrap;rounded=0;fontSize=29;fontFamily=Times New Roman;" vertex="1" parent="1">
          <mxGeometry x="252" y="638" width="60" height="30" as="geometry" />
        </mxCell>
        <mxCell id="h9TD5exB-fgF-aXlMLzN-72" value="" style="pointerEvents=1;verticalLabelPosition=bottom;shadow=0;dashed=0;align=center;html=1;verticalAlign=top;shape=mxgraph.electrical.capacitors.capacitor_1;direction=south;" vertex="1" parent="1">
          <mxGeometry x="275.5" y="538" width="60" height="82" as="geometry" />
        </mxCell>
        <mxCell id="h9TD5exB-fgF-aXlMLzN-73" value="&lt;font style=&quot;font-size: 14px;&quot; face=&quot;Times New Roman&quot;&gt;C&lt;sub&gt;g&lt;/sub&gt;&lt;/font&gt;" style="text;html=1;strokeColor=none;fillColor=none;align=center;verticalAlign=middle;whiteSpace=wrap;rounded=0;fontSize=14;" vertex="1" parent="1">
          <mxGeometry x="302" y="578" width="60" height="30" as="geometry" />
        </mxCell>
        <mxCell id="h9TD5exB-fgF-aXlMLzN-74" value="source&lt;br&gt;electrode" style="text;html=1;strokeColor=none;fillColor=none;align=center;verticalAlign=middle;whiteSpace=wrap;rounded=0;fontColor=#000099;" vertex="1" parent="1">
          <mxGeometry x="80" y="493" width="60" height="30" as="geometry" />
        </mxCell>
        <mxCell id="h9TD5exB-fgF-aXlMLzN-75" value="drain&lt;br&gt;electrode" style="text;html=1;strokeColor=none;fillColor=none;align=center;verticalAlign=middle;whiteSpace=wrap;rounded=0;fontColor=#000099;" vertex="1" parent="1">
          <mxGeometry x="460" y="493" width="60" height="30" as="geometry" />
        </mxCell>
        <mxCell id="h9TD5exB-fgF-aXlMLzN-76" value="(a)" style="text;html=1;strokeColor=none;fillColor=none;align=center;verticalAlign=middle;whiteSpace=wrap;rounded=0;fontFamily=Times New Roman;fontSize=17;" vertex="1" parent="1">
          <mxGeometry x="20" y="350" width="70" height="30" as="geometry" />
        </mxCell>
        <mxCell id="h9TD5exB-fgF-aXlMLzN-77" value="(b)" style="text;html=1;strokeColor=none;fillColor=none;align=center;verticalAlign=middle;whiteSpace=wrap;rounded=0;fontFamily=Times New Roman;fontSize=17;" vertex="1" parent="1">
          <mxGeometry x="20" y="740" width="70" height="30" as="geometry" />
        </mxCell>
      </root>
    </mxGraphModel>
  </diagram>
</mxfile>
